<?xml version="1.0" standalone="no"?>
<svg xmlns:xlink="http://www.w3.org/1999/xlink" id="wave" style="transform:rotate(0deg); transition: 0.3s" viewBox="0 0 1440 400" version="1.1" xmlns="http://www.w3.org/2000/svg"><defs><linearGradient id="sw-gradient-0" x1="0" x2="0" y1="1" y2="0"><stop stop-color="rgba(93.924, 37.752, 148.409, 1)" offset="0%"/><stop stop-color="rgba(61.891, 52.089, 30.421, 0.89)" offset="100%"/></linearGradient></defs><path style="transform:translate(0, 0px); opacity:1" fill="url(#sw-gradient-0)" d="M0,80L26.7,113.3C53.3,147,107,213,160,253.3C213.3,293,267,307,320,293.3C373.3,280,427,240,480,240C533.3,240,587,280,640,253.3C693.3,227,747,133,800,120C853.3,107,907,173,960,180C1013.3,187,1067,133,1120,140C1173.3,147,1227,213,1280,260C1333.3,307,1387,333,1440,313.3C1493.3,293,1547,227,1600,186.7C1653.3,147,1707,133,1760,106.7C1813.3,80,1867,40,1920,40C1973.3,40,2027,80,2080,93.3C2133.3,107,2187,93,2240,120C2293.3,147,2347,213,2400,206.7C2453.3,200,2507,120,2560,120C2613.3,120,2667,200,2720,193.3C2773.3,187,2827,93,2880,66.7C2933.3,40,2987,80,3040,100C3093.3,120,3147,120,3200,140C3253.3,160,3307,200,3360,206.7C3413.3,213,3467,187,3520,166.7C3573.3,147,3627,133,3680,126.7C3733.3,120,3787,120,3813,120L3840,120L3840,400L3813.3,400C3786.7,400,3733,400,3680,400C3626.7,400,3573,400,3520,400C3466.7,400,3413,400,3360,400C3306.7,400,3253,400,3200,400C3146.7,400,3093,400,3040,400C2986.7,400,2933,400,2880,400C2826.7,400,2773,400,2720,400C2666.7,400,2613,400,2560,400C2506.7,400,2453,400,2400,400C2346.7,400,2293,400,2240,400C2186.7,400,2133,400,2080,400C2026.7,400,1973,400,1920,400C1866.7,400,1813,400,1760,400C1706.7,400,1653,400,1600,400C1546.7,400,1493,400,1440,400C1386.7,400,1333,400,1280,400C1226.7,400,1173,400,1120,400C1066.7,400,1013,400,960,400C906.7,400,853,400,800,400C746.7,400,693,400,640,400C586.7,400,533,400,480,400C426.7,400,373,400,320,400C266.7,400,213,400,160,400C106.7,400,53,400,27,400L0,400Z"/></svg>